<svg xmlns="http://www.w3.org/2000/svg" viewBox="0 0 512 512" fill="currentColor">
  <!-- PRISM Shuriken Logo -->
  <path d="
    M 256 80
    C 240 140, 200 180, 160 200
    C 100 220, 60 210, 40 200
    C 80 240, 120 260, 160 260
    C 130 280, 100 320, 80 360
    C 120 340, 160 310, 200 290
    C 210 330, 220 380, 230 432
    C 250 380, 260 330, 270 290
    C 310 310, 350 340, 390 360
    C 370 320, 340 280, 310 260
    C 350 260, 390 240, 430 200
    C 400 210, 360 220, 310 200
    C 280 180, 270 140, 256 80
    Z
  " />
  <!-- Central eye detail -->
  <ellipse cx="256" cy="250" rx="35" ry="16" fill="none" stroke="currentColor" stroke-width="0" opacity="0" />
  <path d="
    M 220 248
    C 230 235, 260 230, 280 244
    C 265 240, 240 242, 220 248
    Z
  " opacity="0.9" fill="currentColor" />
  <path d="
    M 230 258
    C 245 270, 275 268, 290 254
    C 270 260, 245 262, 230 258
    Z
  " opacity="0.9" fill="currentColor" />
</svg>
